# AST/ASF file generated using VICON BodyLanguage
# -----------------------------------------------
:version 1.10
:name VICON
:units
  mass 1.0
  length 0.45
  angle deg
:documentation
   .ast/.asf automatically generated from VICON data using
   VICON BodyBuilder and BodyLanguage model FoxedUp or BRILLIANT.MOD
:root
   order TX TY TZ RX RY RZ
   axis XYZ
   position 0 0 0  
   orientation 0 0 0 
:bonedata
  begin
     id 1 
     name lhipjoint
     direction 0.588788 -0.725889 0.355548 
     length 2.37778 
     axis 0 0 0  XYZ
  end
  begin
     id 2 
     name lfemur
     direction 0.34202 -0.939693 0  
     length 6.86393  
     axis 0 0 20  XYZ
    dof rx ry rz
    limits (-160.0 20.0)
           (-70.0 70.0)
           (-60.0 70.0)
  end
  begin
     id 3 
     name ltibia
     direction 0.34202 -0.939693 0   
     length 7.32851   
     axis 0 0 20   XYZ
    dof rx
    limits (-10.0 170.0)
  end
  begin
     id 4 
     name lfoot
     direction 0.0626533 -0.172138 0.983078   
     length 1.98929   
     axis -90 7.62852e-016 20   XYZ
    dof rx rz
    limits (-45.0 90.0)
           (-70.0 20.0)
  end
  begin
     id 5 
     name ltoes
     direction 1.53647e-011 -4.21734e-011 1   
     length 1.00479   
     axis -90 7.62852e-016 20   XYZ
    dof rx
    limits (-90.0 20.0)
  end
  begin
     id 6 
     name rhipjoint
     direction -0.59141 -0.724168 0.354705   
     length 2.38343  
     axis 0 0 0  XYZ 
  end
  begin
     id 7 
     name rfemur
     direction -0.34202 -0.939693 0   
     length 6.95589   
     axis 0 0 -20   XYZ
    dof rx ry rz
    limits (-160.0 20.0)
           (-70.0 70.0)
           (-70.0 60.0)
  end
  begin
     id 8 
     name rtibia
     direction -0.34202 -0.939693 0   
     length 7.32327   
     axis 0 0 -20   XYZ
    dof rx
    limits (-10.0 170.0)
 end
 begin
     id 9 
     name rfoot
     direction -0.0660461 -0.18146 0.981178   
     length 1.85272  
     axis -90 -7.62852e-016 -20   XYZ
    dof rx rz
    limits (-45.0 90.0)
           (-20.0 70.0)
  end
  begin
     id 10 
     name rtoes
     direction -1.53586e-011 -4.21988e-011 1   
     length 0.93746   
     axis -90 -7.62852e-016 -20   XYZ
    dof rx
    limits (-90.0 20.0)
  end
  begin
     id 11 
     name lowerback
     direction -0.0107982 0.991059 0.13299   
     length 1.98691   
     axis 0 0 0   XYZ
    dof rx ry rz
    limits (-20.0 45.0)
           (-30.0 30.0)
           (-30.0 30.0)
  end
  begin
     id 12 
     name upperback
     direction 0.0076296 0.999916 0.0104576   
     length 1.99501   
     axis 0 0 0   XYZ
    dof rx ry rz
    limits (-20.0 45.0)
           (-30.0 30.0)
           (-30.0 30.0)
  end
  begin
     id 13 
     name thorax
     direction 0.01176 0.998615 -0.0512909   
     length 2.03144   
     axis 0 0 0   XYZ
    dof rx ry rz
    limits (-20.0 45.0)
           (-30.0 30.0)
           (-30.0 30.0)
  end
  begin
     id 14 
     name lowerneck
     direction -0.0171909 0.999644 0.0204011   
     length 1.71818   
     axis 0 0 0   XYZ
    dof rx ry rz
    limits (-20.0 45.0)
           (-30.0 30.0)
           (-30.0 30.0)
  end
  begin
     id 15 
     name upperneck
     direction 0.0250902 0.997482 -0.0663316   
     length 1.66199   
     axis 0 0 0   XYZ
    dof rx ry rz
    limits (-20.0 45.0)
           (-30.0 30.0)
           (-30.0 30.0)
  end
  begin
     id 16
     name head
     direction 0.00881535 0.99956 -0.0283365  
     length 1.81545  
     axis 0 0 0   XYZ
    dof rx ry rz
    limits (-20.0 45.0)
           (-30.0 30.0)
           (-30.0 30.0)
  end
  begin
     id 17 
     name lclavicle
     direction 0.840411 0.486876 -0.238035  
     length 3.30409  
     axis 0 0 0   XYZ
    dof ry rz
    limits (-20.0 10.0)
           (0.0 20.0)
  end
  begin
     id 18 
     name lhumerus
     direction 1 -4.48977e-011 -5.16239e-027   
     length 4.62672   
     axis 180 -30 -90   XYZ
    dof rx ry rz
    limits (-60.0 90.0)
           (-90.0 90.0)
           (-90.0 90.0)
  end
  begin
     id 19
     name lradius
     direction 1 -4.48977e-011 -8.71171e-027   
     length 3.11018   
     axis 180 -30 -90   XYZ
    dof rx
    limits (-10.0 170.0)
  end
  begin
     id 20
     name lwrist
     direction 1 -4.48912e-011 -1.03764e-026   
     length 1.55509   
     axis 9.09556e-015 90 90   XYZ
    dof ry
    limits (-180.0 0.0)
 end
  begin
     id 21 
     name lhand
     direction 1 -4.49072e-011 -2.07528e-026   
     length 0.743834   
     axis 1.3242e-014 90 90   XYZ
    dof rx rz
    limits (-90.0 90.0)
           (-45.0 45.0)
  end
  begin
     id 22 
     name lfingers
     direction 1 -4.48909e-011 -4.15056e-026   
     length 0.599698   
     axis 2.64841e-014 90 90   XYZ
    dof rx
    limits (0.0 90.0)
  end
  begin
     id 23
     name lthumb
     direction 0.707107 -6.35013e-011 0.707107   
     length 0.86105   
     axis -90 45 2.85299e-015   XYZ
    dof rx rz
    limits (-45.0 45.0)
           (-45.0 45.0)
  end
  begin
     id 24 
     name rclavicle
     direction -0.835208 0.500237 -0.228452   
     length 3.2716  
     axis 0 0 0   XYZ 
    dof ry rz
    limits (-10.0 20.0)
           (-20.0 0.0)
  end
  begin
     id 25 
     name rhumerus
     direction -1 -4.48978e-011 -5.1953e-028  
     length 4.55919   
     axis 180 30 90   XYZ
    dof rx ry rz
    limits (-90.0 60.0)
           (-90.0 90.0)
           (-90.0 90.0)
  end
  begin
     id 26 
     name rradius
     direction -1 -4.48961e-011 -5.99546e-027   
     length 3.22748   
     axis 180 30 90   XYZ
    dof rx
    limits (-10.0 170.0)
  end
  begin
     id 27 
     name rwrist
     direction -1 -4.48986e-011 -1.03764e-026   
     length 1.61374   
     axis 9.09556e-015 -90 -90   XYZ
    dof ry
    limits (-180.0 0.0)
  end
  begin
     id 28
     name rhand
     direction -1 -4.4899e-011 -2.07528e-026   
     length 0.700882   
     axis 1.3242e-014 -90 -90   XYZ
    dof rx rz
    limits (-90.0 90.0)
           (-45.0 45.0)
  end
  begin
     id 29
     name rfingers
     direction -1 -4.48991e-011 -4.15056e-026   
     length 0.565069   
     axis 2.64841e-014 -90 -90   XYZ
    dof rx
    limits (0.0 90.0)
  end
  begin
     id 30
     name rthumb
     direction -0.707107 -6.34804e-011 0.707107   
     length 0.811329   
     axis -90 -45 -2.85299e-015   XYZ
    dof rx rz
    limits (-45.0 45.0)
           (-45.0 45.0)
  end
:hierarchy
  begin
    root lhipjoint rhipjoint lowerback
    lhipjoint lfemur
    lfemur ltibia
    ltibia lfoot
    lfoot ltoes
    rhipjoint rfemur
    rfemur rtibia
    rtibia rfoot
    rfoot rtoes
    lowerback upperback
    upperback thorax
    thorax lowerneck lclavicle rclavicle
    lowerneck upperneck
    upperneck head
    lclavicle lhumerus
    lhumerus lradius
    lradius lwrist
    lwrist lhand lthumb
    lhand lfingers
    rclavicle rhumerus
    rhumerus rradius
    rradius rwrist
    rwrist rhand rthumb
    rhand rfingers
  end

#!OML:ASF F:\VICON\USERDATA\INSTALL\SteveWalk\SteveWalk.ASF
:FULLY-SPECIFIED
:DEGREES
32
root -0.267794 16.0279 -35.165 17.2464 -4.58843 5.11926
lowerback -14.6305 0.114366 -7.62138
upperback -5.37841 1.3039 -2.90134
thorax 2.38356 0.684599 1.45903
lowerneck -4.00647 -3.42815 -0.641339
upperneck 6.30575 -4.76628 3.16081
head 2.80632 -2.28264 0.950304
rclavicle -7.11276e-016 2.46493e-014
rhumerus -35.4265 1.9789 -89.9664
rradius 57.3713
rwrist -21.781
rhand -19.0037 -47.1572
rfingers 7.12502
rthumb 7.30162 -77.0113
lclavicle -7.11276e-016 2.46493e-014
lhumerus -76.9483 38.7572 20.3859
lradius 10.5857
lwrist -58.8014
lhand -10.2393 -15.3809
lfingers 7.12502
lthumb 15.7532 13.998
rfemur -15.0494 -2.64278 12.3493
rtibia 61.7109
rfoot 17.58 17.7928
rtoes -19.3535
lfemur -46.7113 -0.378671 -28.9421
ltibia 38.119
lfoot -9.65862 -4.03798
ltoes -6.17563
33
root -0.259674 16.0487 -34.951 17.1122 -4.72144 5.28864
lowerback -15.3704 -0.0389316 -7.68958
upperback -4.76713 1.23347 -2.94563
thorax 3.43513 0.601982 1.45306
lowerneck -4.4547 -3.47436 -0.759451
upperneck 5.99989 -4.81616 3.22941
head 2.79385 -2.30682 0.985129
rclavicle -2.75068e-014 1.07344e-014
rhumerus -34.8658 1.79465 -90.2468
rradius 55.5683
rwrist -21.5551
rhand -14.4177 99.6443
rfingers 7.12502
rthumb 11.7264 -230.704
lclavicle -2.75068e-014 1.07344e-014
lhumerus -75.6641 40.1768 21.6367
lradius 10.566
lwrist -58.4948
lhand -10.5186 -15.5645
lfingers 7.12502
lthumb 15.4842 13.8355
rfemur -16.7367 -2.80656 12.1298
rtibia 64.302
rfoot 14.9158 16.0941
rtoes -18.8873
lfemur -45.7914 -0.286705 -29.2815
ltibia 38.328
lfoot -10.6041 -3.81568
ltoes -5.89691
34
root -0.248475 16.0781 -34.7377 17.0559 -4.70869 5.40111
lowerback -15.3934 -0.179414 -7.5578
upperback -4.68057 1.04064 -3.02924
thorax 3.55997 0.500324 1.25771
lowerneck -4.709 -3.51591 -0.882981
upperneck 6.2416 -4.87703 3.3134
head 2.93175 -2.332 1.02608
rclavicle -5.06901e-015 -3.02153e-014
rhumerus -35.0702 1.56261 -90.5832
rradius 53.789
rwrist -21.171
rhand -18.0629 -59.8746
rfingers 7.12502
rthumb 8.20962 -89.6951
lclavicle -5.06901e-015 -3.02153e-014
lhumerus -74.211 40.759 23.2035
lradius 10.5512
lwrist -57.9979
lhand -10.8093 -15.7028
lfingers 7.12502
lthumb 15.2042 13.7186
rfemur -18.5094 -3.16536 12.0467
rtibia 66.6045
rfoot 11.6056 14.4155
rtoes -20.8081
lfemur -44.9542 -0.287348 -29.559
ltibia 38.5169
lfoot -11.4263 -3.5758
ltoes -5.35108
35
root -0.24042 16.108 -34.5242 16.9996 -4.85212 5.3934
lowerback -15.3195 -0.234051 -7.4608
upperback -4.63494 0.949168 -3.03216
thorax 3.57798 0.453446 1.18377
lowerneck -4.9094 -3.49645 -0.970396
upperneck 6.36266 -4.84578 3.27954
head 3.01168 -2.31645 1.02792
rclavicle 1.36913e-014 -4.05521e-014
rhumerus -35.243 1.21176 -90.7485
rradius 51.8816
rwrist -20.6837
rhand -18.6909 -54.2074
rfingers 7.12502
rthumb 7.60353 -84.0507
lclavicle 1.36913e-014 -4.05521e-014
lhumerus -72.4778 41.2396 25.202
lradius 10.5951
lwrist -57.5809
lhand -11.12 -15.6324
lfingers 7.12502
lthumb 14.9049 13.8114
rfemur -20.4059 -3.33752 12.118
rtibia 68.8312
rfoot 8.27463 12.8839
rtoes -23.3663
lfemur -43.959 -0.152856 -29.6854
ltibia 38.5805
lfoot -12.332 -3.14676
ltoes -6.0532
36
root -0.240795 16.1357 -34.3245 17.165 -5.32543 5.17656
lowerback -15.3164 -0.116105 -7.3199
upperback -4.72325 1.07558 -3.03292
thorax 3.47672 0.520281 1.12646
lowerneck -5.00316 -3.51919 -0.91834
upperneck 6.47333 -4.87818 3.20364
head 3.06372 -2.33186 0.99074
rclavicle 1.60022e-014 -3.97569e-015
rhumerus -35.3116 0.538625 -90.8374
rradius 49.6773
rwrist -20.0278
rhand -18.4928 -54.8287
rfingers 7.12502
rthumb 7.79471 -84.665
lclavicle 1.60022e-014 -3.97569e-015
lhumerus -68.8521 40.6117 30.1137
lradius 10.9941
lwrist -55.0597
lhand -11.4542 -15.42
lfingers 7.12502
lthumb 14.5829 14.0474
rfemur -22.7418 -3.02608 12.4269
rtibia 70.871
rfoot 5.92361 11.3291
rtoes -23.8671
lfemur -43.2039 0.282283 -29.6153
ltibia 38.436
lfoot -13.1087 -2.70443
ltoes -7.1202
37
root -0.235943 16.1683 -34.1265 17.672 -6.34427 4.77344
lowerback -15.7705 0.117999 -6.95553
upperback -5.00808 1.34807 -2.97732
thorax 3.40736 0.660908 1.0334
lowerneck -4.54462 -3.60829 -0.967492
upperneck 6.59882 -4.98622 3.04251
head 3.01819 -2.39581 0.949171
rclavicle 6.41081e-015 4.77083e-015
rhumerus -35.5666 -0.0965077 -90.8462
rradius 47.11
rwrist -19.1581
rhand -17.3393 -55.3832
rfingers 7.12502
rthumb 8.90794 -85.1752
lclavicle 6.41081e-015 4.77083e-015
lhumerus -65.4734 39.5097 34.9727
lradius 11.4373
lwrist -52.1209
lhand -11.8812 -15.1841
lfingers 7.12502
lthumb 14.1715 14.3126
rfemur -25.696 -2.13264 12.7362
rtibia 72.7185
rfoot 4.60794 9.90774
rtoes -20.7143
lfemur -42.8402 1.17582 -29.5258
ltibia 38.1419
lfoot -13.735 -2.34271
ltoes -7.25549
38
root -0.223461 16.2145 -33.9042 17.5422 -6.06797 4.81471
lowerback -15.7801 -0.163848 -6.74923
upperback -5.09528 0.934184 -2.84428
thorax 3.34932 0.459506 0.983273
lowerneck -3.46827 -3.40502 -1.39821
upperneck 6.07722 -4.68103 3.14277
head 2.64979 -2.26635 1.08805
rclavicle 1.48219e-014 1.51076e-014
rhumerus -36.0732 -0.611329 -90.6291
rradius 44.3003
rwrist -18.081
rhand -16.2543 -50.4562
rfingers 7.12502
rthumb 9.95485 -80.2008
lclavicle 1.48219e-014 1.51076e-014
lhumerus -62.9585 38.6688 38.7363
lradius 11.7262
lwrist -49.7046
lhand -12.2476 -14.8339
lfingers 7.12502
lthumb 13.8184 14.6871
rfemur -27.3631 -2.49062 12.9051
rtibia 74.0219
rfoot 3.04739 8.5513
rtoes -17.4493
lfemur -41.5383 1.18669 -29.6783
ltibia 37.8066
lfoot -14.558 -2.2024
ltoes -7.69758
